<mxfile host="65bd71144e">
    <diagram id="XFmrAFkPOiRvbmgVfRLa" name="Page-1">
        <mxGraphModel dx="1523" dy="874" grid="1" gridSize="10" guides="1" tooltips="1" connect="1" arrows="1" fold="1" page="1" pageScale="1" pageWidth="850" pageHeight="1100" math="0" shadow="0">
            <root>
                <mxCell id="0"/>
                <mxCell id="1" parent="0"/>
                <mxCell id="2" value="" style="verticalLabelPosition=bottom;verticalAlign=top;html=1;shadow=0;dashed=0;strokeWidth=1;shape=mxgraph.android.phone2;strokeColor=#c0c0c0;" vertex="1" parent="1">
                    <mxGeometry x="170" y="20" width="500" height="1000" as="geometry"/>
                </mxCell>
                <mxCell id="3" value="" style="group" vertex="1" connectable="0" parent="1">
                    <mxGeometry x="200" y="110" width="465" height="820" as="geometry"/>
                </mxCell>
                <mxCell id="4" value="" style="rounded=0;whiteSpace=wrap;html=1;strokeColor=#FFFFFF;fontSize=17;fontColor=#666666;fillColor=#FFFFFF;" vertex="1" parent="3">
                    <mxGeometry x="-10.108695652173914" width="465" height="820" as="geometry"/>
                </mxCell>
                <mxCell id="33" value="&lt;font color=&quot;#666666&quot; style=&quot;font-size: 17px;&quot;&gt;&lt;b&gt;-&lt;/b&gt;&lt;/font&gt;" style="text;align=center;html=1;verticalAlign=middle;whiteSpace=wrap;rounded=0;fillColor=none;gradientColor=none;fontColor=#000000;" vertex="1" parent="3">
                    <mxGeometry x="311.6847826086957" y="649.1666666666666" width="33.69565217391305" height="27.333333333333336" as="geometry"/>
                </mxCell>
                <mxCell id="73" value="" style="rounded=0;whiteSpace=wrap;html=1;fillColor=#f0f0f0;" vertex="1" parent="3">
                    <mxGeometry width="450" height="70" as="geometry"/>
                </mxCell>
                <mxCell id="74" value="" style="shape=mxgraph.signs.tech.telephone_3;html=1;pointerEvents=1;fillColor=#007FFF;strokeColor=none;verticalLabelPosition=bottom;verticalAlign=top;align=center;" vertex="1" parent="3">
                    <mxGeometry x="345.3838043478261" y="20" width="30.326086956521742" height="30" as="geometry"/>
                </mxCell>
                <mxCell id="75" value="" style="html=1;verticalLabelPosition=bottom;align=center;labelBackgroundColor=#ffffff;verticalAlign=top;strokeWidth=2;strokeColor=#0080F0;shadow=0;dashed=0;shape=mxgraph.ios7.icons.video_conversation;fillColor=#007FFF;" vertex="1" parent="3">
                    <mxGeometry x="404.34782608695656" y="27.5" width="30.326086956521742" height="15" as="geometry"/>
                </mxCell>
                <mxCell id="77" value="&lt;font color=&quot;#000000&quot;&gt;&lt;span style=&quot;font-size: 18px;&quot;&gt;&lt;b&gt;Pusat Bantuan&lt;/b&gt;&lt;/span&gt;&lt;/font&gt;" style="text;strokeColor=none;align=center;fillColor=none;html=1;verticalAlign=middle;whiteSpace=wrap;rounded=0;" vertex="1" parent="3">
                    <mxGeometry x="65.70652173913044" y="20" width="171.84782608695653" height="30" as="geometry"/>
                </mxCell>
                <mxCell id="79" value="" style="ellipse;whiteSpace=wrap;html=1;aspect=fixed;fontSize=18;fontColor=#000000;fillColor=#F0F0F0;strokeColor=#666666;gradientColor=none;" vertex="1" parent="3">
                    <mxGeometry x="15.163043478260871" y="5" width="60" height="60" as="geometry"/>
                </mxCell>
                <mxCell id="80" value="" style="verticalLabelPosition=bottom;html=1;verticalAlign=top;align=center;shape=mxgraph.azure.user;fontSize=18;" vertex="1" parent="3">
                    <mxGeometry x="27.79891304347826" y="15" width="35.380434782608695" height="40" as="geometry"/>
                </mxCell>
                <mxCell id="84" value="" style="rounded=1;whiteSpace=wrap;html=1;strokeColor=#666666;fontSize=18;fontColor=#000000;fillColor=#F0F0F0;gradientColor=none;arcSize=50;" vertex="1" parent="3">
                    <mxGeometry x="15.16" y="770" width="434.84" height="40" as="geometry"/>
                </mxCell>
                <mxCell id="85" value="&lt;font color=&quot;#000000&quot;&gt;&lt;span style=&quot;font-size: 18px;&quot;&gt;Type a message&lt;/span&gt;&lt;/font&gt;" style="text;strokeColor=none;align=center;fillColor=none;html=1;verticalAlign=middle;whiteSpace=wrap;rounded=0;" vertex="1" parent="3">
                    <mxGeometry x="15.163043478260871" y="775" width="171.84782608695653" height="30" as="geometry"/>
                </mxCell>
                <mxCell id="86" value="" style="html=1;verticalLabelPosition=bottom;align=center;labelBackgroundColor=#ffffff;verticalAlign=top;strokeWidth=2;strokeColor=#000000;shadow=0;dashed=0;shape=mxgraph.ios7.icons.camera;rounded=1;fontSize=18;fontColor=#000000;fillColor=#F0F0F0;gradientColor=none;" vertex="1" parent="3">
                    <mxGeometry x="389.6721739130435" y="781.3" width="30.326086956521742" height="17.4" as="geometry"/>
                </mxCell>
                <mxCell id="87" value="" style="html=1;verticalLabelPosition=bottom;align=center;labelBackgroundColor=#ffffff;verticalAlign=top;strokeWidth=2;strokeColor=#0080F0;shadow=0;dashed=0;shape=mxgraph.ios7.icons.message;rounded=1;fontSize=18;fontColor=#000000;fillColor=#007FFF;gradientColor=none;rotation=-90;" vertex="1" parent="3">
                    <mxGeometry x="296.81" y="-30.31" width="48.33" height="267.94" as="geometry"/>
                </mxCell>
                <mxCell id="88" value="&lt;span style=&quot;font-family: Söhne, ui-sans-serif, system-ui, -apple-system, &amp;quot;Segoe UI&amp;quot;, Roboto, Ubuntu, Cantarell, &amp;quot;Noto Sans&amp;quot;, sans-serif, &amp;quot;Helvetica Neue&amp;quot;, Arial, &amp;quot;Apple Color Emoji&amp;quot;, &amp;quot;Segoe UI Emoji&amp;quot;, &amp;quot;Segoe UI Symbol&amp;quot;, &amp;quot;Noto Color Emoji&amp;quot;; font-size: 16px; background-color: rgb(0, 127, 255);&quot;&gt;&lt;font color=&quot;#ffffff&quot;&gt;Halo, Apakah ini pusat bantuan kereta api?&lt;/font&gt;&lt;/span&gt;" style="text;strokeColor=none;align=left;fillColor=none;html=1;verticalAlign=middle;whiteSpace=wrap;rounded=0;fontSize=18;fontColor=#000000;" vertex="1" parent="3">
                    <mxGeometry x="187.01521739130433" y="55.03999999999999" width="247.66304347826087" height="97.25" as="geometry"/>
                </mxCell>
                <mxCell id="98" value="" style="html=1;verticalLabelPosition=bottom;align=center;labelBackgroundColor=#ffffff;verticalAlign=top;strokeWidth=2;strokeColor=#0080F0;shadow=0;dashed=0;shape=mxgraph.ios7.icons.message;rounded=1;fontSize=18;fontColor=#FFFFFF;fillColor=#CCCCCC;gradientColor=none;rotation=-180;" vertex="1" parent="3">
                    <mxGeometry y="110" width="151.63043478260872" height="70" as="geometry"/>
                </mxCell>
                <mxCell id="99" value="&lt;div style=&quot;text-align: start;&quot;&gt;&lt;font face=&quot;Söhne, ui-sans-serif, system-ui, -apple-system, Segoe UI, Roboto, Ubuntu, Cantarell, Noto Sans, sans-serif, Helvetica Neue, Arial, Apple Color Emoji, Segoe UI Emoji, Segoe UI Symbol, Noto Color Emoji&quot;&gt;&lt;span style=&quot;font-size: 16px; background-color: rgb(204, 204, 204);&quot;&gt;Benar, Ada yang bisa saya bantu&lt;/span&gt;&lt;/font&gt;&lt;/div&gt;" style="text;strokeColor=none;align=center;fillColor=none;html=1;verticalAlign=middle;whiteSpace=wrap;rounded=0;fontSize=18;fontColor=#000000;" vertex="1" parent="3">
                    <mxGeometry x="12.635869565217392" y="130" width="126.35869565217392" height="40" as="geometry"/>
                </mxCell>
                <mxCell id="101" value="" style="html=1;verticalLabelPosition=bottom;align=center;labelBackgroundColor=#ffffff;verticalAlign=top;strokeWidth=2;strokeColor=#0080F0;shadow=0;dashed=0;shape=mxgraph.ios7.icons.message;rounded=1;fontSize=18;fontColor=#000000;fillColor=#007FFF;gradientColor=none;rotation=-90;" vertex="1" parent="3">
                    <mxGeometry x="277.37" y="82.13" width="51.81" height="305.25" as="geometry"/>
                </mxCell>
                <mxCell id="103" value="&lt;span style=&quot;font-family: Söhne, ui-sans-serif, system-ui, -apple-system, &amp;quot;Segoe UI&amp;quot;, Roboto, Ubuntu, Cantarell, &amp;quot;Noto Sans&amp;quot;, sans-serif, &amp;quot;Helvetica Neue&amp;quot;, Arial, &amp;quot;Apple Color Emoji&amp;quot;, &amp;quot;Segoe UI Emoji&amp;quot;, &amp;quot;Segoe UI Symbol&amp;quot;, &amp;quot;Noto Color Emoji&amp;quot;; font-size: 16px; background-color: rgb(0, 127, 255);&quot;&gt;&lt;font color=&quot;#ffffff&quot;&gt;Saya ingin menanyakan tentang jam rute kereta ini&lt;/font&gt;&lt;/span&gt;" style="text;strokeColor=none;align=left;fillColor=none;html=1;verticalAlign=middle;whiteSpace=wrap;rounded=0;fontSize=18;fontColor=#000000;" vertex="1" parent="3">
                    <mxGeometry x="151.63" y="186.13" width="248.37" height="97.25" as="geometry"/>
                </mxCell>
                <mxCell id="105" value="" style="html=1;verticalLabelPosition=bottom;align=center;labelBackgroundColor=#ffffff;verticalAlign=top;strokeWidth=2;strokeColor=#0080F0;shadow=0;dashed=0;shape=mxgraph.ios7.icons.message;rounded=1;fontSize=18;fontColor=#FFFFFF;fillColor=#CCCCCC;gradientColor=none;rotation=-180;" vertex="1" parent="3">
                    <mxGeometry y="310" width="181.95652173913044" height="70" as="geometry"/>
                </mxCell>
                <mxCell id="107" value="&lt;div style=&quot;text-align: start;&quot;&gt;&lt;font face=&quot;Söhne, ui-sans-serif, system-ui, -apple-system, Segoe UI, Roboto, Ubuntu, Cantarell, Noto Sans, sans-serif, Helvetica Neue, Arial, Apple Color Emoji, Segoe UI Emoji, Segoe UI Symbol, Noto Color Emoji&quot;&gt;&lt;span style=&quot;font-size: 16px; background-color: rgb(204, 204, 204);&quot;&gt;Tentu Saja saya akan membantu&lt;/span&gt;&lt;/font&gt;&lt;/div&gt;" style="text;strokeColor=none;align=center;fillColor=none;html=1;verticalAlign=middle;whiteSpace=wrap;rounded=0;fontSize=18;fontColor=#000000;" vertex="1" parent="3">
                    <mxGeometry x="15.163043478260871" y="330" width="126.35869565217392" height="40" as="geometry"/>
                </mxCell>
                <mxCell id="108" value="" style="html=1;verticalLabelPosition=bottom;align=center;labelBackgroundColor=#ffffff;verticalAlign=top;strokeWidth=2;strokeColor=#0080F0;shadow=0;dashed=0;shape=mxgraph.ios7.icons.message;rounded=1;fontSize=18;fontColor=#000000;fillColor=#007FFF;gradientColor=none;rotation=-90;" vertex="1" parent="3">
                    <mxGeometry x="279.98" y="274.77" width="51.82" height="299.99" as="geometry"/>
                </mxCell>
                <mxCell id="109" value="&lt;span style=&quot;color: rgb(255, 255, 255); font-family: Söhne, ui-sans-serif, system-ui, -apple-system, &amp;quot;Segoe UI&amp;quot;, Roboto, Ubuntu, Cantarell, &amp;quot;Noto Sans&amp;quot;, sans-serif, &amp;quot;Helvetica Neue&amp;quot;, Arial, &amp;quot;Apple Color Emoji&amp;quot;, &amp;quot;Segoe UI Emoji&amp;quot;, &amp;quot;Segoe UI Symbol&amp;quot;, &amp;quot;Noto Color Emoji&amp;quot;; font-size: 16px; background-color: rgb(0, 127, 255);&quot;&gt;Kira kira jam berapa sampai kereta ini ke stasiun?&lt;/span&gt;" style="text;strokeColor=none;align=left;fillColor=none;html=1;verticalAlign=middle;whiteSpace=wrap;rounded=0;fontSize=18;fontColor=#000000;" vertex="1" parent="3">
                    <mxGeometry x="156.68478260869566" y="374.76" width="262.82608695652175" height="100" as="geometry"/>
                </mxCell>
                <mxCell id="110" value="" style="html=1;verticalLabelPosition=bottom;align=center;labelBackgroundColor=#ffffff;verticalAlign=top;strokeWidth=2;strokeColor=#0080F0;shadow=0;dashed=0;shape=mxgraph.ios7.icons.message;rounded=1;fontSize=18;fontColor=#FFFFFF;fillColor=#CCCCCC;gradientColor=none;rotation=-180;" vertex="1" parent="3">
                    <mxGeometry y="474.76" width="262.82608695652175" height="74.76" as="geometry"/>
                </mxCell>
                <mxCell id="111" value="&lt;div style=&quot;text-align: start;&quot;&gt;&lt;font face=&quot;Söhne, ui-sans-serif, system-ui, -apple-system, Segoe UI, Roboto, Ubuntu, Cantarell, Noto Sans, sans-serif, Helvetica Neue, Arial, Apple Color Emoji, Segoe UI Emoji, Segoe UI Symbol, Noto Color Emoji&quot;&gt;&lt;span style=&quot;font-size: 16px; background-color: rgb(204, 204, 204);&quot;&gt;Sesuai Jadwal yang ada, kereta sampai distasiun jam 10.00&lt;/span&gt;&lt;/font&gt;&lt;/div&gt;" style="text;strokeColor=none;align=center;fillColor=none;html=1;verticalAlign=middle;whiteSpace=wrap;rounded=0;fontSize=18;fontColor=#000000;" vertex="1" parent="3">
                    <mxGeometry x="11.372282608695652" y="500" width="240.08152173913044" height="40" as="geometry"/>
                </mxCell>
                <mxCell id="102" value="" style="html=1;verticalLabelPosition=bottom;align=center;labelBackgroundColor=#ffffff;verticalAlign=top;strokeWidth=2;strokeColor=#0080F0;shadow=0;dashed=0;shape=mxgraph.ios7.icons.message;rounded=1;fontSize=18;fontColor=#000000;fillColor=#007FFF;gradientColor=none;rotation=-90;" vertex="1" parent="3">
                    <mxGeometry x="291.75" y="499.59" width="71.59" height="248.97" as="geometry"/>
                </mxCell>
                <mxCell id="112" value="&lt;span style=&quot;color: rgb(255, 255, 255); font-family: Söhne, ui-sans-serif, system-ui, -apple-system, &amp;quot;Segoe UI&amp;quot;, Roboto, Ubuntu, Cantarell, &amp;quot;Noto Sans&amp;quot;, sans-serif, &amp;quot;Helvetica Neue&amp;quot;, Arial, &amp;quot;Apple Color Emoji&amp;quot;, &amp;quot;Segoe UI Emoji&amp;quot;, &amp;quot;Segoe UI Symbol&amp;quot;, &amp;quot;Noto Color Emoji&amp;quot;; font-size: 16px; background-color: rgb(0, 127, 255);&quot;&gt;Terima kasih atas bantuannya, senang bisa menaiki kereta ini&lt;/span&gt;" style="text;strokeColor=none;align=left;fillColor=none;html=1;verticalAlign=middle;whiteSpace=wrap;rounded=0;fontSize=18;fontColor=#000000;" vertex="1" parent="3">
                    <mxGeometry x="205.66" y="576.5" width="214.34" height="100" as="geometry"/>
                </mxCell>
                <mxCell id="106" value="" style="html=1;verticalLabelPosition=bottom;align=center;labelBackgroundColor=#ffffff;verticalAlign=top;strokeWidth=2;strokeColor=#0080F0;shadow=0;dashed=0;shape=mxgraph.ios7.icons.message;rounded=1;fontSize=18;fontColor=#FFFFFF;fillColor=#CCCCCC;gradientColor=none;rotation=-180;" vertex="1" parent="3">
                    <mxGeometry y="670" width="272.9347826086957" height="90" as="geometry"/>
                </mxCell>
                <mxCell id="113" value="&lt;div style=&quot;text-align: start;&quot;&gt;&lt;font face=&quot;Söhne, ui-sans-serif, system-ui, -apple-system, Segoe UI, Roboto, Ubuntu, Cantarell, Noto Sans, sans-serif, Helvetica Neue, Arial, Apple Color Emoji, Segoe UI Emoji, Segoe UI Symbol, Noto Color Emoji&quot;&gt;&lt;span style=&quot;font-size: 16px; background-color: rgb(204, 204, 204);&quot;&gt;Sama-sama sudah menjadi tugas saya membantu penumpang. Semoga sampai dengan selamat&lt;/span&gt;&lt;/font&gt;&lt;/div&gt;" style="text;strokeColor=none;align=center;fillColor=none;html=1;verticalAlign=middle;whiteSpace=wrap;rounded=0;fontSize=18;fontColor=#000000;" vertex="1" parent="3">
                    <mxGeometry x="15.163043478260871" y="700" width="240.08152173913044" height="40" as="geometry"/>
                </mxCell>
            </root>
        </mxGraphModel>
    </diagram>
</mxfile>